<?xml version="1.0" encoding="UTF-8"?>
<svg id="Layer_2" data-name="Layer 2" xmlns="http://www.w3.org/2000/svg" viewBox="0 0 498.21 185.03">
  <defs>
    <style>
      .cls-1 {
        fill: #24541f;
      }

      .cls-2 {
        fill: #f33000;
      }
    </style>
  </defs>
  <g id="Layer_1-2" data-name="Layer 1">
    <g>
      <g>
        <path class="cls-1" d="m498.21,55.17v2.46s-2.68,1.06-2.68,4.21l.02,52.7c0,1.86-1.5,3.37-3.35,3.37h-10.36l-22.78-35.96s.48,2.98.48,6.73v29.23h-12.62v-62.74h8.19c4.17,0,7.21,1.72,9.41,5.17,1.86,2.92,19.07,30.03,19.07,30.03,0,0-.62-1.84-.62-6.79v-28.41h15.26Zm-242.37,0v59.37c0,1.86-1.52,3.37-3.37,3.37h-10.34l-22.78-35.96s.48,2.98.48,6.73v29.23h-12.64v-62.74h8.17c4.17,0,7.21,1.72,9.4,5.17,1.86,2.92,19.09,30.03,19.09,30.03,0,0-.62-1.84-.62-6.79v-28.41h12.62Zm-156.13,0h-16.87v24.04h-14.76v-24.04h-19.59v2.46s2.68,1.02,2.68,4.21v56.07h16.91v-27.22h14.76v27.22h16.87v-62.74h0Zm54.63,0h-37.58v57.13c0,3.25,3.1,5.61,6.33,5.61h31.25c1.86,0,3.37-1.52,3.37-3.37v-8.09h-21.57c-1.4,0-2.54-1.16-2.54-2.56v-13.2h19.21v-11.46h-19.21v-12.58h24.08v-8.09c.02-1.88-1.5-3.39-3.35-3.39m35.62,0h-16.87v59.37c0,1.86,1.52,3.37,3.37,3.37h13.5v-62.74h0Zm239.26,0h-37.6v57.13c0,3.13,3.1,5.61,6.35,5.61h31.25c1.86,0,3.37-1.52,3.37-3.37v-8.09h-21.57c-1.4,0-2.54-1.16-2.54-2.56v-13.2h19.23v-11.46h-19.23v-12.58h24.12v-8.09c0-1.88-1.54-3.39-3.39-3.39m-118.75,0h-37.6v57.13c0,3.13,3.1,5.61,6.35,5.61h31.25c1.86,0,3.37-1.52,3.37-3.37v-8.09h-21.57c-1.4,0-2.54-1.16-2.54-2.56v-13.2h19.23v-11.46h-19.23v-12.58h24.1v-8.09c0-1.88-1.52-3.39-3.37-3.39m71.41,0h-12.18c-2.94,0-5.17.74-7.51,3.41-2.32,2.68-17.19,19.81-17.19,19.81v-23.22h-16.87v59.37c0,1.86,1.52,3.37,3.37,3.37h13.5v-28.43s12.66,19.79,14.88,23.26c2.22,3.47,4.43,5.19,9.48,5.19h13.86l-23.68-37.02,22.34-25.74h0Z"/>
        <path class="cls-2" d="m17.07,78.28c-.87.64-2.02-.19-1.69-1.2.47-1.44,9.23-28.4,9.23-28.4L.46,31.12c-.87-.64-.41-1.98.64-1.96h29.84S39.72,2.21,40.17.77c.33-1.01,1.75-1.03,2.08,0,.45,1.44,9.23,28.38,9.23,28.38h29.84c1.05,0,1.53,1.32.64,1.96l-14.41,10.47h-17.04l-5.28-16.2-5.26,16.22h-17.04l13.79,10.02-5.28,16.2s-13.52,9.83-14.39,10.47"/>
      </g>
      <g>
        <path class="cls-1" d="m116.74,170.59v-37.29c0-1.04.29-1.62,1.39-1.8l5.68-.75c1.1-.17,1.62.29,1.62,1.22v13.75c1.86-1.51,4.47-2.44,7.08-2.44,3.25,0,5.57,1.1,7.48,2.84,3.07,2.78,4.47,7.31,4.47,12.18,0,8.06-4.58,14.79-12.06,14.79-3.02,0-5.8-1.1-7.83-3.02-.12,1.28-.12,2.26-1.68,2.26h-4.52c-1.22,0-1.62-.58-1.62-1.74Zm8.7-6.79c1.22,1.04,3.02,2.09,4.7,2.09,4.47,0,5.28-3.94,5.28-7.6s-.81-7.6-5.1-7.6c-1.74,0-3.6.75-4.87,1.86v11.25Z"/>
        <path class="cls-1" d="m182.4,158.82c0,1.39-.64,1.68-2.09,1.68h-16.24c.7,3.65,3.94,5.68,7.48,5.68,2.55,0,4.87-.52,7.19-1.45.81-.35,1.51-.29,1.8.75l.93,3.65c.29,1.1-.12,1.57-.99,1.97-3.07,1.45-7.13,1.97-10.5,1.97-9.22,0-15.08-5.68-15.08-14.96s6.09-14.85,15.02-14.85c3.71,0,6.84,1.39,8.99,3.71,2.9,3.07,3.48,7.02,3.48,11.08v.75Zm-8.53-3.83c0-2.49-1.45-4.99-4.47-4.99s-4.81,2.26-5.22,4.99h9.69Z"/>
        <path class="cls-1" d="m219.28,145.94l-10.44,25.17c-.41,1.04-.87,1.22-1.97,1.22h-3.42c-.99,0-1.62-.17-2.03-1.16l-10.21-25.29c-.41-.93-.06-1.8,1.04-1.8h6.55c1.1,0,1.62.52,1.91,1.45l3.65,11.77c.41,1.22.87,2.96,1.16,4.18h.06c.29-1.04.75-2.78,1.16-4.06l3.89-11.89c.41-1.16.87-1.45,2.15-1.45h5.34c1.16,0,1.62.75,1.16,1.86Z"/>
        <path class="cls-1" d="m255.36,158.82c0,1.39-.64,1.68-2.09,1.68h-16.24c.7,3.65,3.94,5.68,7.48,5.68,2.55,0,4.87-.52,7.19-1.45.81-.35,1.51-.29,1.8.75l.93,3.65c.29,1.1-.12,1.57-.99,1.97-3.07,1.45-7.13,1.97-10.5,1.97-9.22,0-15.08-5.68-15.08-14.96s6.09-14.85,15.02-14.85c3.71,0,6.84,1.39,8.99,3.71,2.9,3.07,3.48,7.02,3.48,11.08v.75Zm-8.53-3.83c0-2.49-1.45-4.99-4.47-4.99s-4.81,2.26-5.22,4.99h9.69Z"/>
        <path class="cls-1" d="m275.89,153.36v17.34c0,1.04-.46,1.62-1.62,1.62h-5.45c-1.04,0-1.62-.52-1.62-1.62v-24.94c0-1.39.7-1.68,1.68-1.68h4.7c1.1,0,1.62.29,1.68,1.16l.12,1.74c2.09-2.49,4.12-3.71,7.31-3.71,1.74,0,2.38.35,2.2,1.57l-.87,5.51c-.12.64-.41.93-.93.93-.58,0-.87-.12-1.86-.12-1.91,0-3.89.75-5.34,2.2Z"/>
        <path class="cls-1" d="m323.68,171c0,.87-.58,1.33-1.39,1.33h-3.07c-3.42,0-4.81-.99-5.57-2.67h-.12c-1.57,1.8-5.28,3.42-8.12,3.42-8.35,0-12.24-6.61-12.24-14.33,0-10.27,6.38-15.49,12.76-15.49,3.25,0,5.86,1.51,7.08,3.25l.17-1.28c.12-.75.58-1.16,1.33-1.16h5.22c.81,0,1.39.46,1.39,1.39v20.01c0,.58.23.99.87.99h.46c.81,0,1.22.29,1.22,1.16v3.36Zm-11.25-18.56c-1.04-.93-2.96-1.97-4.7-1.97-2.84,0-5.51,2.32-5.51,7.71,0,3.6.93,7.89,5.34,7.89,2.09,0,4.18-1.57,4.87-2.44v-11.19Z"/>
        <path class="cls-1" d="m361.5,170.07c0,9.74-4.23,14.96-14.27,14.96-3.02,0-5.86-.52-8.93-1.74-1.28-.46-1.16-1.22-.87-2.26l.99-3.25c.41-1.28.93-1.33,1.97-.93,2.15.87,4.41,1.33,6.38,1.33,5.28,0,6.03-2.73,6.03-6.26v-2.09c-1.62,1.33-4.64,2.61-6.96,2.61-3.48,0-6.44-1.1-8.58-3.25-2.49-2.44-3.71-6.21-3.71-10.44,0-7.95,4.52-15.49,13.05-15.49,1.39,0,2.67.29,3.94.87.93.41,2.15,1.45,2.78,2.38l.12-1.28c.06-.75.52-1.16,1.51-1.16h4.93c1.22,0,1.62.46,1.62,1.62v24.36Zm-8.7-17.92c-1.1-1.04-2.84-1.86-4.52-1.86-1.51,0-2.78.64-3.65,1.51-1.57,1.57-2.03,4.35-2.03,6.44s.46,4.41,1.97,5.86c.93.93,2.32,1.28,3.48,1.28,1.8,0,3.83-1.1,4.76-2.09v-11.14Z"/>
        <path class="cls-1" d="m401.17,158.82c0,1.39-.64,1.68-2.09,1.68h-16.24c.7,3.65,3.94,5.68,7.48,5.68,2.55,0,4.87-.52,7.19-1.45.81-.35,1.51-.29,1.8.75l.93,3.65c.29,1.1-.12,1.57-.99,1.97-3.07,1.45-7.13,1.97-10.5,1.97-9.22,0-15.08-5.68-15.08-14.96s6.09-14.85,15.02-14.85c3.71,0,6.84,1.39,8.99,3.71,2.9,3.07,3.48,7.02,3.48,11.08v.75Zm-8.53-3.83c0-2.49-1.45-4.99-4.47-4.99s-4.81,2.26-5.22,4.99h9.69Z"/>
        <path class="cls-1" d="m421.35,173.08c-3.07,0-6.9-.93-9.69-2.15-.81-.35-.93-.99-.7-1.74l1.16-3.77c.23-.81.7-1.28,1.8-.81,2.84,1.16,5.39,1.8,7.6,1.8,2.03,0,3.13-.75,3.13-2.03,0-1.1-.58-1.68-2.73-2.49l-4.35-1.62c-3.94-1.45-6.55-4.23-6.55-8.41,0-5.8,5.92-8.58,11.08-8.58,3.02,0,5.92.46,8.99,1.86.75.35.93.87.7,1.62l-1.22,3.94c-.23.75-.99.81-1.62.58-2.49-.87-4.35-1.51-6.73-1.51-1.91,0-2.78.93-2.78,1.86,0,.7.23,1.45,2.2,2.2l4.93,1.97c4.12,1.62,6.44,4.06,6.44,7.95,0,6.67-5.57,9.34-11.66,9.34Z"/>
      </g>
    </g>
  </g>
</svg>