<svg width="425" height="200" viewBox="0 0 425 200" fill="none" xmlns="http://www.w3.org/2000/svg">
<g clip-path="url(#clip0_856_3747)">
<path d="M100.14 54.9399V70.8319H94.036V55.0479L81.496 33.1599H88.48L97.224 49.4919L106.024 33.1599H112.624L100.14 54.9359V54.9399ZM109.984 57.3599C109.984 47.7359 115.208 43.0599 122.908 43.0599C130.608 43.0599 135.888 47.7879 135.888 57.3599C135.888 66.9319 130.664 71.5479 122.908 71.5479C115.152 71.5479 109.984 67.0399 109.984 57.3599ZM129.724 57.3599C129.724 50.6519 127.248 47.8479 122.904 47.8479C118.56 47.8479 116.14 50.6519 116.14 57.3599C116.14 64.0679 118.616 66.7639 122.904 66.7639C127.192 66.7639 129.724 64.0679 129.724 57.3599ZM163.148 43.4479V69.7879C159.408 70.8879 155.34 71.5479 151.544 71.5479C143.46 71.5479 140.544 67.4799 140.544 61.1559V44.1639L146.372 43.4479V60.3879C146.372 63.5239 146.924 66.6559 152.148 66.6559C153.908 66.6559 155.776 66.3799 157.316 65.9399V44.1639L163.144 43.4479H163.148ZM180.504 48.1239C178.744 48.1239 176.82 48.5639 175.28 49.3319V70.8359H169.504V43.6159L172.968 44.7159C175.772 43.6719 178.524 43.0679 180.94 43.0679C182.096 43.0679 183.304 43.1799 184.348 43.3999L184.9 48.5679C183.8 48.3479 182.26 48.1279 180.5 48.1279L180.504 48.1239ZM75.336 114.712C79.572 114.712 81.66 113.556 81.66 110.808C81.66 107.672 79.132 107.62 75.06 107.508C69.452 107.344 65.108 105.692 65.108 99.6999C65.108 93.7079 69.124 90.8999 76.82 90.8999C79.296 90.8999 82.376 91.3399 85.124 92.2199L85.676 97.2799C83.42 96.6199 80.012 95.7959 77.044 95.7959C72.588 95.7959 70.884 97.0079 70.884 99.5359C70.884 102.34 73.852 102.452 77.1 102.56C82.6 102.724 87.492 104.156 87.492 110.808C87.492 116.528 83.752 119.552 75.504 119.552C71.928 119.552 68.96 119.056 65.824 118.012L65.328 112.952C67.636 113.776 71.048 114.712 75.336 114.712ZM108.772 113.556L108.66 118.34C106.296 119.164 104.204 119.496 102.28 119.496C97 119.496 94.14 117.188 94.14 110.752V96.5079H89.024L89.628 91.7799H94.136V84.6879L99.912 83.9719V91.7799H108.16L107.612 96.5079H99.912V110.476C99.912 113.28 100.684 114.764 103.596 114.764C105.028 114.764 106.732 114.38 108.764 113.556H108.772ZM110.924 105.36C110.924 95.7359 116.148 91.0599 123.848 91.0599C131.548 91.0599 136.824 95.7879 136.824 105.36C136.824 114.932 131.6 119.548 123.848 119.548C116.096 119.548 110.924 115.04 110.924 105.36ZM130.668 105.36C130.668 98.6519 128.192 95.8479 123.848 95.8479C119.504 95.8479 117.084 98.6519 117.084 105.36C117.084 112.068 119.56 114.764 123.848 114.764C128.136 114.764 130.668 112.068 130.668 105.36ZM152.844 96.1239C151.084 96.1239 149.16 96.5639 147.62 97.3319V118.836H141.844V91.6159L145.308 92.7159C148.112 91.6719 150.864 91.0679 153.28 91.0679C154.436 91.0679 155.644 91.1799 156.688 91.3999L157.24 96.5679C156.14 96.3479 154.6 96.1279 152.84 96.1279L152.844 96.1239ZM184.628 91.7799L175.06 120.048C172.532 127.416 170.66 130.66 164.392 130.66C162.96 130.66 160.764 130.328 158.948 129.836L158.288 124.556C160.268 125.324 162.248 125.764 163.788 125.764C166.98 125.764 168.188 124.828 170.056 119.276L170.22 118.836H168.02L159.164 91.7799H165.16L171.98 113.504L179.076 91.7799H184.632H184.628ZM37.668 149.676V166.832H31.84V150.004C31.84 146.1 30.244 143.956 26.508 143.956C24.86 143.956 23.1 144.504 21.392 145.496C21.776 146.76 21.944 148.244 21.944 149.896V166.836H16.116V150.064C16.116 145.828 14.3 143.96 10.616 143.96C9.02 143.96 7.26 144.4 5.776 145.168V166.836H0V139.616L3.408 140.66C5.992 139.668 8.688 139.064 11.272 139.064C14.46 139.064 16.992 139.78 18.804 141.32C21.444 139.944 24.304 139.064 27.384 139.064C33.984 139.064 37.668 142.64 37.668 149.676ZM64.832 147.972V165.844C61.644 166.78 57.904 167.548 53.888 167.548C46.684 167.548 42.448 165.072 42.448 158.692C42.448 152.312 47.012 150.608 52.568 150.28L59.056 149.896V148.3C59.056 145.88 58.176 143.792 53.336 143.792C50.312 143.792 46.9 144.564 44.592 145.276L45.144 140.328C47.84 139.504 50.92 139.008 53.56 139.008C62.192 139.008 64.832 142.804 64.832 147.972ZM53.944 162.82C55.868 162.82 57.74 162.488 59.06 162.216V154.352L53.232 154.684C49.492 154.96 48.172 156.06 48.172 158.7C48.172 161.504 50.04 162.824 53.948 162.824L53.944 162.82ZM88.336 161.556L88.224 166.34C85.86 167.164 83.768 167.496 81.844 167.496C76.564 167.496 73.704 165.188 73.704 158.752V144.508H68.588L69.192 139.78H73.7V132.688L79.476 131.972V139.78H87.724L87.176 144.508H79.476V158.476C79.476 161.28 80.248 162.764 83.16 162.764C84.592 162.764 86.296 162.38 88.328 161.556H88.336ZM110.328 161.556L110.216 166.34C107.852 167.164 105.76 167.496 103.836 167.496C98.556 167.496 95.696 165.188 95.696 158.752V144.508H90.58L91.184 139.78H95.692V132.688L101.468 131.972V139.78H109.716L109.168 144.508H101.468V158.476C101.468 161.28 102.24 162.764 105.152 162.764C106.584 162.764 108.288 162.38 110.32 161.556H110.328ZM137.144 155.288H119.108C119.66 160.896 122.572 162.768 127.744 162.768C130.768 162.768 133.408 162.216 135.936 161.284L135.716 166.068C133.02 167.004 130.216 167.552 127.136 167.552C118.336 167.552 113.056 163.536 113.056 153.64C113.056 143.744 118.392 139.068 125.648 139.068C133.568 139.068 137.308 144.184 137.308 152.596C137.308 153.808 137.196 154.74 137.144 155.292V155.288ZM119.108 150.94H131.536C131.424 146.484 129.612 143.628 125.596 143.628C121.968 143.628 119.656 146.324 119.108 150.94ZM153.828 144.124C152.068 144.124 150.144 144.564 148.604 145.332V166.836H142.828V139.616L146.292 140.716C149.096 139.672 151.848 139.068 154.264 139.068C155.42 139.068 156.628 139.18 157.672 139.4L158.224 144.568C157.124 144.348 155.584 144.128 153.824 144.128L153.828 144.124ZM171.596 162.712C175.832 162.712 177.92 161.556 177.92 158.808C177.92 155.672 175.392 155.62 171.32 155.508C165.712 155.344 161.368 153.692 161.368 147.7C161.368 141.708 165.384 138.9 173.08 138.9C175.556 138.9 178.636 139.34 181.384 140.22L181.936 145.28C179.68 144.62 176.272 143.796 173.3 143.796C168.844 143.796 167.14 145.008 167.14 147.536C167.14 150.34 170.108 150.452 173.356 150.56C178.856 150.724 183.748 152.156 183.748 158.808C183.748 164.528 180.008 167.552 171.76 167.552C168.184 167.552 165.216 167.056 162.08 166.012L161.584 160.952C163.892 161.776 167.304 162.712 171.592 162.712H171.596Z" fill="black"/>
<path d="M325 200C380.228 200 425 155.228 425 100C425 44.7715 380.228 0 325 0C269.772 0 225 44.7715 225 100C225 155.228 269.772 200 325 200Z" fill="#DC0037"/>
<path d="M402.479 71.816C405.679 80.608 407.427 90.1 407.427 100C407.427 109.9 405.679 119.392 402.479 128.184L413.535 132.208C417.195 122.16 419.191 111.312 419.191 100C419.191 88.688 417.195 77.84 413.535 67.792L402.479 71.82V71.816ZM239.759 139.792C254.751 171.884 287.315 194.116 325.075 194.116C362.835 194.116 395.399 171.88 410.391 139.792L399.727 134.816C386.607 162.896 358.115 182.352 325.075 182.352C292.035 182.352 263.543 162.896 250.423 134.816L239.759 139.792ZM247.671 71.816L236.615 67.788C232.955 77.836 230.959 88.684 230.959 99.996C230.959 111.308 232.955 122.156 236.615 132.204L247.671 128.18C244.471 119.388 242.723 109.896 242.723 99.996C242.723 90.096 244.471 80.604 247.671 71.812M410.391 60.208C395.399 28.12 362.835 5.88403 325.075 5.88403C287.315 5.88403 254.751 28.12 239.759 60.208L250.423 65.184C263.543 37.104 292.035 17.648 325.075 17.648C358.115 17.648 386.607 37.104 399.727 65.184L410.391 60.208ZM307.035 110.412C305.251 110.412 303.683 110.196 301.543 109.7V90.32C303.315 89.912 305.067 89.596 307.035 89.596C312.383 89.596 314.947 92.02 314.947 100.004C314.947 107.988 312.379 110.416 307.035 110.416M308.603 81.176C306.255 81.176 303.731 81.592 301.543 82.06V62.352L291.703 63.42V116.324C295.767 117.608 301.043 118.82 306.247 118.82C318.083 118.82 325.071 114.828 325.071 99.996C325.071 85.164 318.083 81.172 308.599 81.172M346.651 95.652C354.207 95.796 360.555 97.148 360.555 106.848C360.555 114.548 356.635 118.828 344.015 118.828C338.811 118.828 335.247 118.116 331.467 116.76L330.683 108.632C333.607 109.56 337.599 110.416 343.231 110.416C348.295 110.416 350.647 109.776 350.647 106.78C350.647 103.356 347.939 103.5 342.731 103.428C334.675 103.284 329.895 101.288 329.895 93.516C329.895 85.744 334.459 81.18 346.295 81.18C349.075 81.18 353.283 81.68 357.059 82.82L357.843 90.948C354.919 90.236 350.287 89.592 347.007 89.592C341.587 89.592 339.807 90.232 339.807 93.228C339.807 95.508 342.443 95.58 346.651 95.652ZM275.235 110.124C273.951 110.336 272.239 110.624 270.459 110.624C266.183 110.624 264.399 109.268 264.399 106.344C264.399 103.42 266.111 102.78 269.675 102.564L275.235 102.208V110.124ZM269.103 81.176C265.967 81.176 261.759 81.676 257.979 82.816L257.195 90.944C260.331 90.232 264.967 89.588 268.031 89.588C273.163 89.588 275.231 90.016 275.231 94.152V95.292L268.387 95.648C260.831 96.076 254.483 97.36 254.483 106.844C254.483 114.544 258.403 118.824 270.239 118.824C275.731 118.824 281.003 117.612 285.071 116.328V93.512C285.071 85.456 280.579 81.176 269.099 81.176M385.823 110.124C384.539 110.336 382.827 110.624 381.047 110.624C376.771 110.624 374.987 109.268 374.987 106.344C374.987 103.42 376.699 102.78 380.263 102.564L385.823 102.208V110.124ZM379.691 81.176C376.555 81.176 372.347 81.676 368.567 82.816L367.783 90.944C370.919 90.232 375.555 89.588 378.619 89.588C383.751 89.588 385.819 90.016 385.819 94.152V95.292L378.975 95.648C371.419 96.076 365.071 97.144 365.071 106.844C365.071 114.544 368.991 118.824 380.827 118.824C386.319 118.824 391.591 117.612 395.659 116.328V93.512C395.659 85.456 391.167 81.176 379.687 81.176" fill="white"/>
</g>
<defs>
<clipPath id="clip0_856_3747">
<rect width="425" height="200" fill="white"/>
</clipPath>
</defs>
</svg>
